<svg xmlns="http://www.w3.org/2000/svg" viewBox="0 0 512 512"><defs><filter id="g" x="-50%" y="-50%" width="200%" height="200%"><feGaussianBlur stdDeviation="6" result="b"/><feMerge><feMergeNode in="b"/><feMergeNode in="SourceGraphic"/></feMerge></filter><linearGradient id="fl" x1="0" y1="1" x2="0" y2="0"><stop offset="0" stop-color="#e8541c"/><stop offset="1" stop-color="#ffc35a"/></linearGradient><radialGradient id="aura"><stop offset="0" stop-color="#e8541c" stop-opacity=".55"/><stop offset="1" stop-color="#e8541c" stop-opacity="0"/></radialGradient></defs><circle cx="256" cy="330" r="220" fill="url(#aura)"/>
<g filter="url(#g)" transform="translate(256 432) scale(1.3) translate(-256 -432)">
  <path d="M256 430 C196 420 182 360 214 316 C214 350 236 356 236 356 C226 314 250 282 268 262 C262 300 296 312 300 352 C312 340 314 322 312 310 C342 350 326 420 256 430Z" fill="url(#fl)"/>
  <path d="M256 424 C230 418 224 392 238 372 C240 388 252 390 252 390 C250 372 258 356 268 346 C266 368 286 376 282 400 C280 416 270 424 256 424Z" fill="#ffc35a"/>
</g>
<g fill="#ffc35a" filter="url(#g)"><circle cx="210" cy="250" r="4"/><circle cx="300" cy="220" r="3"/><circle cx="236" cy="180" r="2.5"/><circle cx="286" cy="150" r="3.5"/><circle cx="196" cy="140" r="2"/></g>
<path d="M96 452 C150 410 210 402 256 404 C302 402 362 410 416 452 Z" fill="#2a221c"/>
<g fill="#2a221c" opacity=".8"><circle cx="180" cy="424" r="10"/><circle cx="330" cy="428" r="12"/><circle cx="236" cy="414" r="8"/></g>
<path d="M243 128 L256 88 L269 128 L269 412 L243 412 Z" fill="#cfc6b8"/><path d="M256 96 L256 410" stroke="#9a7a52" stroke-width="2" opacity=".5"/>
<path d="M204 136 H308 L298 152 H214 Z" fill="#9a7a52"/>
<rect x="250" y="96" width="12" height="40" fill="#9a7a52" opacity="0"/>
<circle cx="256" cy="84" r="9" fill="#9a7a52"/>
<path d="M256 300 Q282 289 256 278 Q230 267 256 256 Q282 245 256 234 Q230 223 256 212 Q282 201 256 190 Q230 179 256 168" fill="none" stroke="#9a7a52" stroke-width="9" stroke-linecap="round"/></svg>